<svg width="17" height="30" viewBox="0 0 17 30" fill="none" xmlns="http://www.w3.org/2000/svg">
<path d="M8.99072 9.15965C8.861 8.95559 8.65745 8.80955 8.42259 8.75202C8.18773 8.69449 7.93973 8.72993 7.73039 8.85094C7.52104 8.97195 7.36655 9.16917 7.29918 9.40139C7.2318 9.63362 7.25677 9.8829 7.36885 10.0972L9.7126 14.1659L4.02197 13.2284L8.98135 23.1565C9.09649 23.3712 9.2907 23.5327 9.52283 23.6067C9.75496 23.6807 10.0068 23.6614 10.2249 23.5529C10.4431 23.4445 10.6105 23.2553 10.6916 23.0256C10.7727 22.7958 10.7612 22.5436 10.6595 22.3222L7.3501 15.6847L13.3313 16.6784L8.99072 9.15965Z" fill="white"/>
<path d="M15.1125 1.875H13.125V1.48125C13.125 1.0884 12.9689 0.711636 12.6912 0.433848C12.4134 0.15606 12.0366 0 11.6438 0H5.23125C4.8384 0 4.46164 0.15606 4.18385 0.433848C3.90606 0.711636 3.75 1.0884 3.75 1.48125V1.875H1.7625C1.29506 1.875 0.846757 2.06069 0.516224 2.39122C0.185691 2.72176 0 3.17006 0 3.6375V28.2375C0 28.469 0.0455884 28.6981 0.134162 28.912C0.222736 29.1258 0.352561 29.3201 0.516224 29.4838C0.679887 29.6474 0.874184 29.7773 1.08802 29.8658C1.30186 29.9544 1.53105 30 1.7625 30H15.1125C15.5799 30 16.0282 29.8143 16.3588 29.4838C16.6893 29.1532 16.875 28.7049 16.875 28.2375V3.6375C16.875 3.17006 16.6893 2.72176 16.3588 2.39122C16.0282 2.06069 15.5799 1.875 15.1125 1.875ZM15 28.125H1.875V3.75H5.625V1.875H11.25V3.75H15V28.125Z" fill="white"/>
</svg>
